<mxfile host="65bd71144e">
    <diagram id="763KCGGIvDWEMNYO__GD" name="Page-1">
        <mxGraphModel dx="848" dy="392" grid="1" gridSize="10" guides="1" tooltips="1" connect="1" arrows="1" fold="1" page="1" pageScale="1" pageWidth="850" pageHeight="1100" math="0" shadow="0">
            <root>
                <mxCell id="0"/>
                <mxCell id="1" parent="0"/>
                <mxCell id="2" value="&lt;div style=&quot;box-sizing:border-box;width:100%;background:#e4e4e4;padding:2px;&quot;&gt;&lt;font color=&quot;#2913f0&quot;&gt;nurses&lt;/font&gt;&lt;/div&gt;&lt;table style=&quot;width:100%;font-size:1em;&quot; cellpadding=&quot;2&quot; cellspacing=&quot;0&quot;&gt;&lt;tbody&gt;&lt;tr&gt;&lt;td&gt;&lt;font color=&quot;#2913f0&quot;&gt;PK&lt;/font&gt;&lt;/td&gt;&lt;td&gt;&lt;font color=&quot;#2913f0&quot;&gt;uniqueId&lt;/font&gt;&lt;/td&gt;&lt;/tr&gt;&lt;tr&gt;&lt;td&gt;&lt;font color=&quot;#2913f0&quot;&gt;FK1&lt;/font&gt;&lt;/td&gt;&lt;td&gt;&lt;font color=&quot;#2913f0&quot;&gt;foreignKey&lt;/font&gt;&lt;/td&gt;&lt;/tr&gt;&lt;tr&gt;&lt;td&gt;&lt;/td&gt;&lt;td&gt;&lt;font color=&quot;#2913f0&quot;&gt;fname&lt;br&gt;lname&lt;br&gt;gender&lt;br&gt;contact&lt;br&gt;email&lt;br&gt;password&lt;/font&gt;&lt;/td&gt;&lt;/tr&gt;&lt;/tbody&gt;&lt;/table&gt;" style="verticalAlign=top;align=left;overflow=fill;html=1;" vertex="1" parent="1">
                    <mxGeometry x="60" y="70" width="180" height="170" as="geometry"/>
                </mxCell>
                <mxCell id="3" value="&lt;div style=&quot;box-sizing:border-box;width:100%;background:#e4e4e4;padding:2px;&quot;&gt;patients&lt;/div&gt;&lt;table style=&quot;width:100%;font-size:1em;&quot; cellpadding=&quot;2&quot; cellspacing=&quot;0&quot;&gt;&lt;tbody&gt;&lt;tr&gt;&lt;td&gt;PK&lt;/td&gt;&lt;td&gt;uniqueId&lt;/td&gt;&lt;/tr&gt;&lt;tr&gt;&lt;td&gt;FK1&lt;/td&gt;&lt;td&gt;foreignKey&lt;/td&gt;&lt;/tr&gt;&lt;tr&gt;&lt;td&gt;&lt;/td&gt;&lt;td&gt;fname&lt;br&gt;lname&lt;br&gt;gender&lt;br&gt;contact&lt;br&gt;email&lt;br&gt;password&lt;/td&gt;&lt;/tr&gt;&lt;/tbody&gt;&lt;/table&gt;" style="verticalAlign=top;align=left;overflow=fill;html=1;fontColor=#2913F0;" vertex="1" parent="1">
                    <mxGeometry x="300" y="220" width="180" height="220" as="geometry"/>
                </mxCell>
                <mxCell id="4" value="&lt;div style=&quot;box-sizing:border-box;width:100%;background:#e4e4e4;padding:2px;&quot;&gt;doctors&lt;/div&gt;&lt;table style=&quot;width:100%;font-size:1em;&quot; cellpadding=&quot;2&quot; cellspacing=&quot;0&quot;&gt;&lt;tbody&gt;&lt;tr&gt;&lt;td&gt;PK&lt;/td&gt;&lt;td&gt;uniqueId&lt;/td&gt;&lt;/tr&gt;&lt;tr&gt;&lt;td&gt;FK1&lt;/td&gt;&lt;td&gt;foreignKey&lt;/td&gt;&lt;/tr&gt;&lt;tr&gt;&lt;td&gt;&lt;/td&gt;&lt;td&gt;fname&lt;br&gt;lname&lt;br&gt;gender&lt;br&gt;contact&lt;br&gt;email&lt;br&gt;password&lt;/td&gt;&lt;/tr&gt;&lt;/tbody&gt;&lt;/table&gt;" style="verticalAlign=top;align=left;overflow=fill;html=1;fontColor=#2913F0;" vertex="1" parent="1">
                    <mxGeometry x="520" y="40" width="180" height="170" as="geometry"/>
                </mxCell>
                <mxCell id="5" value="&lt;div style=&quot;box-sizing:border-box;width:100%;background:#e4e4e4;padding:2px;&quot;&gt;pharmacists&lt;/div&gt;&lt;table style=&quot;width:100%;font-size:1em;&quot; cellpadding=&quot;2&quot; cellspacing=&quot;0&quot;&gt;&lt;tbody&gt;&lt;tr&gt;&lt;td&gt;PK&lt;/td&gt;&lt;td&gt;uniqueId&lt;/td&gt;&lt;/tr&gt;&lt;tr&gt;&lt;td&gt;FK1&lt;/td&gt;&lt;td&gt;foreignKey&lt;/td&gt;&lt;/tr&gt;&lt;tr&gt;&lt;td&gt;&lt;/td&gt;&lt;td&gt;fname&lt;br&gt;lname&lt;br&gt;gender&lt;br&gt;contact&lt;br&gt;email&lt;br&gt;password&lt;/td&gt;&lt;/tr&gt;&lt;/tbody&gt;&lt;/table&gt;" style="verticalAlign=top;align=left;overflow=fill;html=1;fontColor=#2913F0;" vertex="1" parent="1">
                    <mxGeometry x="60" y="270" width="180" height="190" as="geometry"/>
                </mxCell>
                <mxCell id="6" value="" style="endArrow=none;html=1;edgeStyle=orthogonalEdgeStyle;fontColor=#2913F0;" edge="1" parent="1">
                    <mxGeometry relative="1" as="geometry">
                        <mxPoint x="240" y="160" as="sourcePoint"/>
                        <mxPoint x="410" y="210" as="targetPoint"/>
                    </mxGeometry>
                </mxCell>
                <mxCell id="7" value="parent" style="edgeLabel;resizable=0;html=1;align=left;verticalAlign=bottom;fontColor=#2913F0;" connectable="0" vertex="1" parent="6">
                    <mxGeometry x="-1" relative="1" as="geometry"/>
                </mxCell>
                <mxCell id="8" value="child" style="edgeLabel;resizable=0;html=1;align=right;verticalAlign=bottom;fontColor=#2913F0;" connectable="0" vertex="1" parent="6">
                    <mxGeometry x="1" relative="1" as="geometry"/>
                </mxCell>
                <mxCell id="9" value="" style="endArrow=none;html=1;edgeStyle=orthogonalEdgeStyle;fontColor=#2913F0;entryX=0;entryY=0.667;entryDx=0;entryDy=0;entryPerimeter=0;exitX=1;exitY=0.159;exitDx=0;exitDy=0;exitPerimeter=0;" edge="1" parent="1" source="2" target="4">
                    <mxGeometry relative="1" as="geometry">
                        <mxPoint x="250" y="100" as="sourcePoint"/>
                        <mxPoint x="460" y="104.5" as="targetPoint"/>
                    </mxGeometry>
                </mxCell>
                <mxCell id="10" value="parent" style="edgeLabel;resizable=0;html=1;align=left;verticalAlign=bottom;fontColor=#2913F0;" connectable="0" vertex="1" parent="9">
                    <mxGeometry x="-1" relative="1" as="geometry"/>
                </mxCell>
                <mxCell id="11" value="child" style="edgeLabel;resizable=0;html=1;align=right;verticalAlign=bottom;fontColor=#2913F0;" connectable="0" vertex="1" parent="9">
                    <mxGeometry x="1" relative="1" as="geometry"/>
                </mxCell>
                <mxCell id="12" value="" style="endArrow=none;html=1;edgeStyle=orthogonalEdgeStyle;fontColor=#2913F0;entryX=-0.017;entryY=0.144;entryDx=0;entryDy=0;entryPerimeter=0;" edge="1" parent="1" target="3">
                    <mxGeometry relative="1" as="geometry">
                        <mxPoint x="100" y="264.5" as="sourcePoint"/>
                        <mxPoint x="260" y="264.5" as="targetPoint"/>
                        <Array as="points">
                            <mxPoint x="100" y="270"/>
                            <mxPoint x="200" y="270"/>
                            <mxPoint x="200" y="252"/>
                        </Array>
                    </mxGeometry>
                </mxCell>
                <mxCell id="13" value="parent" style="edgeLabel;resizable=0;html=1;align=left;verticalAlign=bottom;fontColor=#2913F0;" connectable="0" vertex="1" parent="12">
                    <mxGeometry x="-1" relative="1" as="geometry"/>
                </mxCell>
                <mxCell id="14" value="child" style="edgeLabel;resizable=0;html=1;align=right;verticalAlign=bottom;fontColor=#2913F0;" connectable="0" vertex="1" parent="12">
                    <mxGeometry x="1" relative="1" as="geometry"/>
                </mxCell>
                <mxCell id="15" value="" style="endArrow=none;html=1;edgeStyle=orthogonalEdgeStyle;fontColor=#2913F0;exitX=0.994;exitY=0.389;exitDx=0;exitDy=0;exitPerimeter=0;" edge="1" parent="1" source="3">
                    <mxGeometry relative="1" as="geometry">
                        <mxPoint x="510" y="250" as="sourcePoint"/>
                        <mxPoint x="580" y="210" as="targetPoint"/>
                        <Array as="points">
                            <mxPoint x="490" y="306"/>
                            <mxPoint x="490" y="250"/>
                            <mxPoint x="500" y="250"/>
                            <mxPoint x="500" y="200"/>
                            <mxPoint x="555" y="200"/>
                            <mxPoint x="555" y="210"/>
                        </Array>
                    </mxGeometry>
                </mxCell>
                <mxCell id="16" value="parent" style="edgeLabel;resizable=0;html=1;align=left;verticalAlign=bottom;fontColor=#2913F0;" connectable="0" vertex="1" parent="15">
                    <mxGeometry x="-1" relative="1" as="geometry"/>
                </mxCell>
                <mxCell id="17" value="child" style="edgeLabel;resizable=0;html=1;align=right;verticalAlign=bottom;fontColor=#2913F0;" connectable="0" vertex="1" parent="15">
                    <mxGeometry x="1" relative="1" as="geometry"/>
                </mxCell>
                <mxCell id="18" value="Relation" style="endArrow=open;html=1;endSize=12;startArrow=diamondThin;startSize=14;startFill=0;edgeStyle=orthogonalEdgeStyle;fontColor=#2913F0;exitX=-0.022;exitY=0.545;exitDx=0;exitDy=0;exitPerimeter=0;" edge="1" parent="1" source="3" target="2">
                    <mxGeometry relative="1" as="geometry">
                        <mxPoint x="290" y="280" as="sourcePoint"/>
                        <mxPoint x="410" y="210" as="targetPoint"/>
                        <Array as="points">
                            <mxPoint x="296" y="280"/>
                            <mxPoint x="250" y="280"/>
                            <mxPoint x="250" y="200"/>
                        </Array>
                    </mxGeometry>
                </mxCell>
                <mxCell id="19" value="0..n" style="edgeLabel;resizable=0;html=1;align=left;verticalAlign=top;fontColor=#2913F0;" connectable="0" vertex="1" parent="18">
                    <mxGeometry x="-1" relative="1" as="geometry"/>
                </mxCell>
                <mxCell id="20" value="1" style="edgeLabel;resizable=0;html=1;align=right;verticalAlign=top;fontColor=#2913F0;" connectable="0" vertex="1" parent="18">
                    <mxGeometry x="1" relative="1" as="geometry"/>
                </mxCell>
                <mxCell id="21" value="Relation" style="endArrow=open;html=1;endSize=12;startArrow=diamondThin;startSize=14;startFill=0;edgeStyle=orthogonalEdgeStyle;fontColor=#2913F0;entryX=0.844;entryY=1.022;entryDx=0;entryDy=0;entryPerimeter=0;" edge="1" parent="1" target="4">
                    <mxGeometry relative="1" as="geometry">
                        <mxPoint x="480" y="350" as="sourcePoint"/>
                        <mxPoint x="570" y="310" as="targetPoint"/>
                        <Array as="points">
                            <mxPoint x="480" y="300"/>
                            <mxPoint x="480" y="390"/>
                            <mxPoint x="592" y="390"/>
                            <mxPoint x="592" y="214"/>
                        </Array>
                    </mxGeometry>
                </mxCell>
                <mxCell id="22" value="0..n" style="edgeLabel;resizable=0;html=1;align=left;verticalAlign=top;fontColor=#2913F0;" connectable="0" vertex="1" parent="21">
                    <mxGeometry x="-1" relative="1" as="geometry"/>
                </mxCell>
                <mxCell id="23" value="1" style="edgeLabel;resizable=0;html=1;align=right;verticalAlign=top;fontColor=#2913F0;" connectable="0" vertex="1" parent="21">
                    <mxGeometry x="1" relative="1" as="geometry"/>
                </mxCell>
            </root>
        </mxGraphModel>
    </diagram>
</mxfile>